<svg width="14" height="15" viewBox="0 0 14 15" fill="none" xmlns="http://www.w3.org/2000/svg">
<path fill-rule="evenodd" clip-rule="evenodd" d="M7.00802 0.987305C6.68998 0.987305 6.38245 1.10112 6.14103 1.30816L1.92199 4.92458L0.265933 6.24969C0.194619 6.30326 0.134795 6.37062 0.090012 6.44776C0.0452291 6.52489 0.0164002 6.61024 0.00523634 6.69874C-0.00592752 6.78723 0.000801246 6.87707 0.0250233 6.96291C0.0492454 7.04875 0.090467 7.12885 0.146241 7.19846C0.202016 7.26807 0.271206 7.32576 0.349705 7.36811C0.428204 7.41046 0.514411 7.43661 0.603211 7.44501C0.69201 7.4534 0.781591 7.44387 0.866636 7.41698C0.951682 7.39009 1.03046 7.34639 1.09829 7.28847L1.68094 6.82235V12.0962C1.68094 12.4494 1.82125 12.7881 2.071 13.0379C2.32076 13.2876 2.6595 13.4279 3.01271 13.4279H5.67625H8.33978H11.0033C11.3565 13.4279 11.6953 13.2876 11.945 13.0379C12.1948 12.7881 12.3351 12.4494 12.3351 12.0962V6.82302L12.9177 7.28913C12.986 7.34379 13.0644 7.38445 13.1484 7.40881C13.2325 7.43317 13.3204 7.44074 13.4074 7.4311C13.4943 7.42145 13.5785 7.39477 13.6551 7.35259C13.7318 7.31041 13.7993 7.25355 13.854 7.18526C13.9086 7.11696 13.9493 7.03857 13.9737 6.95456C13.998 6.87055 14.0056 6.78256 13.9959 6.69563C13.9863 6.60869 13.9596 6.5245 13.9174 6.44787C13.8753 6.37125 13.8184 6.30368 13.7501 6.24902L12.094 4.92391L7.875 1.30816C7.63358 1.10112 7.32605 0.987305 7.00802 0.987305Z" fill="#457EFF"/>
<path fill-rule="evenodd" clip-rule="evenodd" d="M5.91283 6.99492C5.8252 7.4592 5.3257 10.0745 5.22307 10.6078C5.12045 11.1411 5.56028 11.6191 5.99211 11.6191C6.42394 11.6191 6.48102 11.6191 6.65827 11.6191C6.83551 11.6191 7.09938 11.7436 7.00006 12.197C6.90073 12.6505 6.79803 13.1169 6.69706 13.5575C6.5961 13.9981 7.10207 14.1757 7.32145 13.8322C7.54083 13.4888 9.1788 10.8672 9.36729 10.5146C9.55578 10.1621 9.24704 9.61689 8.78232 9.61689C8.3176 9.61689 8.12531 9.61689 7.88154 9.61689C7.63778 9.61689 7.60357 9.44286 7.69204 9.08435C7.78051 8.72584 7.88689 8.25688 8.05138 7.56961C8.21587 6.88235 7.55302 6.50903 7.20376 6.50903C6.8545 6.50903 6.47897 6.50903 6.37544 6.50903C6.2719 6.50903 6.00047 6.53064 5.91283 6.99492Z" fill="white"/>
</svg>
