<svg width="54" height="24" viewBox="0 0 54 24" fill="none" xmlns="http://www.w3.org/2000/svg">
<path d="M5.248 1.264C5.25867 1.31733 5.32267 1.51467 5.44 1.856C5.568 2.18667 5.72267 2.61333 5.904 3.136C6.08533 3.648 6.288 4.22933 6.512 4.88C6.74667 5.52 6.98133 6.17067 7.216 6.832C7.77067 8.38933 8.4 10.144 9.104 12.096H8.576C8.34133 12.096 8.14933 12.0107 8 11.84C8 11.84 7.99467 11.8293 7.984 11.808L7.968 11.792C7.936 11.76 7.92533 11.744 7.936 11.744C7.904 11.712 7.888 11.6747 7.888 11.632C7.83467 11.5893 7.80267 11.5253 7.792 11.44C7.76 11.3547 7.69067 11.1733 7.584 10.896C7.488 10.6187 7.38133 10.32 7.264 10C7.15733 9.68 7.05067 9.376 6.944 9.088C6.848 8.8 6.77867 8.59733 6.736 8.48H2.832C2.78933 8.58667 2.71467 8.784 2.608 9.072C2.50133 9.34933 2.38933 9.648 2.272 9.968C2.16533 10.288 2.05867 10.5867 1.952 10.864C1.856 11.1413 1.792 11.328 1.76 11.424C1.74933 11.4453 1.73333 11.472 1.712 11.504C1.70133 11.536 1.68533 11.5733 1.664 11.616C1.61067 11.7547 1.52 11.872 1.392 11.968C1.27467 12.0533 1.13067 12.096 0.96 12.096H0.4C1.104 10.144 1.73867 8.38933 2.304 6.832C2.53867 6.17067 2.77333 5.52 3.008 4.88C3.24267 4.22933 3.45067 3.648 3.632 3.136C3.81333 2.61333 3.96267 2.18667 4.08 1.856C4.208 1.51467 4.28267 1.31733 4.304 1.264C4.32533 1.21067 4.34667 1.16267 4.368 1.12C4.38933 1.07733 4.41067 1.04533 4.432 1.024C4.50667 0.874666 4.61867 0.799999 4.768 0.799999C4.94933 0.799999 5.06667 0.874666 5.12 1.024C5.14133 1.04533 5.16267 1.08267 5.184 1.136C5.20533 1.18933 5.22667 1.232 5.248 1.264ZM6.368 7.504L4.768 3.088L3.168 7.504H6.368ZM16.8284 8.864C16.807 9.29067 16.7484 9.68533 16.6524 10.048C16.567 10.4107 16.407 10.7307 16.1724 11.008C15.9484 11.2853 15.639 11.5093 15.2444 11.68C14.8497 11.84 14.343 11.936 13.7244 11.968H12.7484C12.1297 11.936 11.623 11.84 11.2284 11.68C10.8337 11.5093 10.519 11.2853 10.2844 11.008C10.0604 10.7307 9.90038 10.4107 9.80438 10.048C9.70838 9.68533 9.64971 9.29067 9.62838 8.864V3.984C9.64971 3.55733 9.70838 3.16267 9.80438 2.8C9.90038 2.43733 10.0604 2.11733 10.2844 1.84C10.519 1.56267 10.8337 1.344 11.2284 1.184C11.623 1.01333 12.1297 0.911999 12.7484 0.879999H13.7244C14.343 0.911999 14.8497 1.01333 15.2444 1.184C15.639 1.344 15.9484 1.56267 16.1724 1.84C16.407 2.11733 16.567 2.43733 16.6524 2.8C16.7484 3.16267 16.807 3.55733 16.8284 3.984V8.864ZM15.8844 4.256C15.863 3.424 15.6444 2.81067 15.2284 2.416C14.823 2.01067 14.2044 1.808 13.3724 1.808H13.0844C12.2524 1.808 11.6284 2.01067 11.2124 2.416C10.807 2.81067 10.5937 3.424 10.5724 4.256V8.592C10.5937 9.424 10.807 10.0427 11.2124 10.448C11.6284 10.8427 12.2524 11.04 13.0844 11.04H13.3724C14.2044 11.04 14.823 10.8427 15.2284 10.448C15.6444 10.0427 15.863 9.424 15.8844 8.592V4.256ZM23.9234 11.424C23.934 11.4667 23.9607 11.5467 24.0034 11.664C24.0567 11.7813 24.0887 11.8667 24.0994 11.92H22.8034H19.0914H19.0594H18.5474H18.6754H19.0914H18.5474H17.7634C17.7314 11.92 17.7154 11.9093 17.7154 11.888C17.7047 11.8773 17.6994 11.8613 17.6994 11.84V11.056V11.04V10.528V6.4V2.288V0.976C17.742 0.997333 17.822 1.02933 17.9394 1.072C18.0567 1.11467 18.1314 1.14667 18.1634 1.168C18.302 1.21067 18.4087 1.29067 18.4834 1.408C18.558 1.52533 18.6007 1.65333 18.6114 1.792V10.976H23.2994C23.438 10.9867 23.5607 11.0293 23.6674 11.104C23.7847 11.1787 23.87 11.2853 23.9234 11.424ZM33.1714 0.639999C32.6167 1.58933 32.11 2.46933 31.6514 3.28C31.4594 3.62133 31.262 3.968 31.0594 4.32C30.8674 4.66133 30.686 4.98667 30.5154 5.296C30.3554 5.59467 30.2114 5.86133 30.0834 6.096C29.966 6.32 29.8807 6.48533 29.8274 6.592V10.8V10.816V11.648C29.8274 11.6907 29.806 11.712 29.7634 11.712H28.9314C28.8887 11.712 28.8674 11.6907 28.8674 11.648V10.288V8.4V7.28V6.672C28.8354 6.608 28.7607 6.47467 28.6434 6.272C28.526 6.05867 28.382 5.80267 28.2114 5.504C28.0407 5.20533 27.8487 4.88 27.6354 4.528C27.422 4.176 27.2087 3.81867 26.9954 3.456C26.4834 2.61333 25.918 1.67467 25.2994 0.639999H25.7954C25.9127 0.639999 26.0567 0.656 26.2274 0.688C26.398 0.719999 26.5154 0.778666 26.5794 0.863999C26.59 0.885333 26.638 0.970667 26.7234 1.12C26.8087 1.25867 26.9154 1.44 27.0434 1.664C27.182 1.87733 27.3314 2.11733 27.4914 2.384C27.662 2.65067 27.8327 2.92267 28.0034 3.2C28.398 3.85067 28.8407 4.58133 29.3314 5.392C29.8007 4.592 30.2167 3.86667 30.5794 3.216C30.7394 2.94933 30.894 2.68267 31.0434 2.416C31.1927 2.14933 31.326 1.90933 31.4434 1.696C31.5607 1.48267 31.6567 1.312 31.7314 1.184C31.8167 1.04533 31.8594 0.970666 31.8594 0.959999C31.934 0.831999 32.0407 0.746666 32.1794 0.704C32.318 0.661333 32.4674 0.639999 32.6274 0.639999H33.1714Z" fill="url(#paint0_linear_1_489)"/>
<path d="M20.24 21.024C20.24 21.3333 20.192 21.6533 20.096 21.984C20.0107 22.304 19.8453 22.608 19.6 22.896C19.3653 23.1733 19.04 23.408 18.624 23.6C18.2187 23.7813 17.7013 23.888 17.072 23.92H16.064C15.4347 23.888 14.9173 23.7867 14.512 23.616C14.1067 23.4453 13.7867 23.2213 13.552 22.944C13.3173 22.6667 13.152 22.3413 13.056 21.968C12.96 21.5947 12.9067 21.1893 12.896 20.752V18.016V15.792C12.9067 15.3653 12.96 14.9653 13.056 14.592C13.152 14.208 13.3173 13.8773 13.552 13.6C13.7867 13.3227 14.1067 13.0987 14.512 12.928C14.9173 12.7573 15.4347 12.656 16.064 12.624H17.072C17.7013 12.656 18.2187 12.768 18.624 12.96C19.04 13.1413 19.3653 13.3707 19.6 13.648C19.8453 13.9253 20.0107 14.2293 20.096 14.56C20.192 14.88 20.24 15.1893 20.24 15.488V16.848C20.1973 16.8267 20.112 16.7947 19.984 16.752C19.8667 16.7093 19.7813 16.6773 19.728 16.656C19.5893 16.6027 19.4827 16.5173 19.408 16.4C19.3333 16.2827 19.2853 16.1493 19.264 16V15.888C19.2533 15.0453 19.0347 14.4533 18.608 14.112C18.192 13.76 17.5573 13.584 16.704 13.584H16.416C15.552 13.584 14.912 13.7867 14.496 14.192C14.08 14.5867 13.8613 15.216 13.84 16.08V16.944V20.464C13.8613 21.328 14.08 21.9627 14.496 22.368C14.912 22.7627 15.552 22.96 16.416 22.96H16.704C17.5467 22.96 18.1813 22.784 18.608 22.432C19.0347 22.08 19.2533 21.4773 19.264 20.624V20.544C19.2853 20.3947 19.3333 20.2613 19.408 20.144C19.4827 20.0267 19.5893 19.9413 19.728 19.888C19.7813 19.8667 19.8667 19.8347 19.984 19.792C20.112 19.7493 20.1973 19.7173 20.24 19.696V21.024ZM28.5159 20.864C28.4945 21.2907 28.4359 21.6853 28.3399 22.048C28.2545 22.4107 28.0945 22.7307 27.8599 23.008C27.6359 23.2853 27.3265 23.5093 26.9319 23.68C26.5372 23.84 26.0305 23.936 25.4119 23.968H24.4359C23.8172 23.936 23.3105 23.84 22.9159 23.68C22.5212 23.5093 22.2065 23.2853 21.9719 23.008C21.7479 22.7307 21.5879 22.4107 21.4919 22.048C21.3959 21.6853 21.3372 21.2907 21.3159 20.864V15.984C21.3372 15.5573 21.3959 15.1627 21.4919 14.8C21.5879 14.4373 21.7479 14.1173 21.9719 13.84C22.2065 13.5627 22.5212 13.344 22.9159 13.184C23.3105 13.0133 23.8172 12.912 24.4359 12.88H25.4119C26.0305 12.912 26.5372 13.0133 26.9319 13.184C27.3265 13.344 27.6359 13.5627 27.8599 13.84C28.0945 14.1173 28.2545 14.4373 28.3399 14.8C28.4359 15.1627 28.4945 15.5573 28.5159 15.984V20.864ZM27.5719 16.256C27.5505 15.424 27.3319 14.8107 26.9159 14.416C26.5105 14.0107 25.8919 13.808 25.0599 13.808H24.7719C23.9399 13.808 23.3159 14.0107 22.8999 14.416C22.4945 14.8107 22.2812 15.424 22.2599 16.256V20.592C22.2812 21.424 22.4945 22.0427 22.8999 22.448C23.3159 22.8427 23.9399 23.04 24.7719 23.04H25.0599C25.8919 23.04 26.5105 22.8427 26.9159 22.448C27.3319 22.0427 27.5505 21.424 27.5719 20.592V16.256ZM36.7149 20.752C36.6935 21.1893 36.6349 21.5947 36.5389 21.968C36.4429 22.3413 36.2775 22.6667 36.0429 22.944C35.8082 23.2213 35.4882 23.4453 35.0829 23.616C34.6775 23.7867 34.1602 23.888 33.5309 23.92H29.4989C29.4775 23.92 29.4669 23.92 29.4669 23.92C29.4669 23.9093 29.4615 23.904 29.4509 23.904C29.4295 23.8827 29.4189 23.872 29.4189 23.872V23.856V12.688C29.4189 12.6773 29.4295 12.6613 29.4509 12.64C29.4615 12.6293 29.4775 12.624 29.4989 12.624H33.5309C34.1602 12.656 34.6775 12.7573 35.0829 12.928C35.4882 13.0987 35.8082 13.3227 36.0429 13.6C36.2775 13.8773 36.4429 14.208 36.5389 14.592C36.6349 14.9653 36.6935 15.3653 36.7149 15.792V20.752ZM33.4669 22.944C34.9602 22.88 35.7229 22.0533 35.7549 20.464V16.48V16.256V16.144V16.08C35.7549 16.016 35.7495 15.9627 35.7389 15.92C35.7282 15.8773 35.7229 15.8293 35.7229 15.776V15.68C35.7122 15.648 35.7069 15.616 35.7069 15.584C35.7069 15.5413 35.7069 15.5093 35.7069 15.488C35.6962 15.456 35.6909 15.4187 35.6909 15.376C35.6695 15.344 35.6589 15.296 35.6589 15.232C35.6482 15.2107 35.6429 15.1947 35.6429 15.184C35.6429 15.1627 35.6322 15.1413 35.6109 15.12C35.6109 15.0987 35.6055 15.0773 35.5949 15.056C35.5949 15.0347 35.5949 15.0187 35.5949 15.008C35.5735 14.9867 35.5629 14.9653 35.5629 14.944C35.5629 14.9227 35.5575 14.9013 35.5469 14.88C35.5255 14.8587 35.5149 14.8427 35.5149 14.832C35.5149 14.8107 35.5095 14.7893 35.4989 14.768C35.4775 14.7573 35.4669 14.7467 35.4669 14.736C35.4669 14.7147 35.4615 14.6933 35.4509 14.672C35.4189 14.6293 35.4029 14.5973 35.4029 14.576C35.3922 14.5547 35.3815 14.5387 35.3709 14.528C35.3602 14.5173 35.3495 14.5013 35.3389 14.48C35.3175 14.4587 35.3015 14.4427 35.2909 14.432C35.2909 14.4213 35.2802 14.4107 35.2589 14.4C35.2375 14.3573 35.2162 14.3253 35.1949 14.304L35.1149 14.224C35.0935 14.2027 35.0722 14.176 35.0509 14.144C35.0402 14.144 35.0189 14.128 34.9869 14.096C34.9655 14.0747 34.9442 14.064 34.9229 14.064C34.9015 14.0533 34.8802 14.0373 34.8589 14.016C34.8269 13.984 34.8055 13.968 34.7949 13.968C34.7629 13.9467 34.7255 13.9253 34.6829 13.904C34.6402 13.8827 34.6135 13.8667 34.6029 13.856C34.5815 13.8453 34.5602 13.8347 34.5389 13.824C34.5175 13.8133 34.4962 13.808 34.4749 13.808C34.4322 13.7867 34.4055 13.7707 34.3949 13.76C34.3415 13.76 34.2935 13.744 34.2509 13.712C34.2082 13.712 34.1815 13.7067 34.1709 13.696C34.1495 13.696 34.1229 13.6907 34.0909 13.68C34.0695 13.6693 34.0375 13.664 33.9949 13.664C33.9842 13.6533 33.9629 13.648 33.9309 13.648C33.8989 13.648 33.8669 13.6427 33.8349 13.632C33.8135 13.6213 33.7815 13.616 33.7389 13.616H33.6749C33.6429 13.6053 33.6055 13.6 33.5629 13.6C33.5309 13.6 33.4989 13.6 33.4669 13.6H30.3629V22.944H33.4669ZM43.1895 23.008C43.3388 23.0293 43.4668 23.0773 43.5735 23.152C43.6908 23.2267 43.7762 23.3333 43.8295 23.472C43.8402 23.5147 43.8668 23.6 43.9095 23.728C43.9628 23.8453 44.0002 23.9307 44.0215 23.984H37.8615C37.8295 23.984 37.8135 23.9733 37.8135 23.952C37.7922 23.9413 37.7815 23.9253 37.7815 23.904V12.944C37.7815 12.912 37.7922 12.896 37.8135 12.896C37.8135 12.8747 37.8295 12.864 37.8615 12.864H44.0215C44.0002 12.9173 43.9628 13.008 43.9095 13.136C43.8668 13.2533 43.8402 13.3333 43.8295 13.376C43.7762 13.5147 43.6908 13.6213 43.5735 13.696C43.4668 13.7707 43.3388 13.8187 43.1895 13.84H38.7255V18.128H41.9575C42.0108 18.128 42.0375 18.1547 42.0375 18.208V19.008C42.0375 19.0507 42.0108 19.072 41.9575 19.072H38.7255V23.008H43.1895ZM44.2891 15.488C44.2891 15.0613 44.3425 14.688 44.4491 14.368C44.5558 14.0373 44.7318 13.76 44.9771 13.536C45.2225 13.312 45.5478 13.1413 45.9531 13.024C46.3691 12.896 46.8865 12.816 47.5051 12.784H48.4971C49.1158 12.816 49.6225 12.928 50.0171 13.12C50.4225 13.3013 50.7425 13.5413 50.9771 13.84C51.2118 14.128 51.3718 14.4533 51.4571 14.816C51.5531 15.1787 51.6011 15.5413 51.6011 15.904V16.144V17.2C51.5585 17.1787 51.4785 17.1467 51.3611 17.104C51.2438 17.0613 51.1585 17.0347 51.1051 17.024C50.9665 16.9707 50.8545 16.8853 50.7691 16.768C50.6838 16.64 50.6358 16.5013 50.6251 16.352V16.144C50.6251 15.2587 50.4171 14.6347 50.0011 14.272C49.5851 13.9093 48.9611 13.728 48.1291 13.728H47.8731C47.4465 13.728 47.0678 13.7493 46.7371 13.792C46.4171 13.824 46.1451 13.904 45.9211 14.032C45.6971 14.1493 45.5265 14.3253 45.4091 14.56C45.2918 14.7947 45.2278 15.1093 45.2171 15.504C45.2171 15.6853 45.2278 15.9147 45.2491 16.192C45.2705 16.4693 45.3238 16.72 45.4091 16.944C45.4625 17.104 45.5638 17.232 45.7131 17.328C45.8731 17.4133 46.0545 17.4827 46.2571 17.536C46.4598 17.5787 46.6731 17.616 46.8971 17.648C47.1318 17.6693 47.3451 17.696 47.5371 17.728C48.1878 17.8133 48.7158 17.888 49.1211 17.952C49.5371 18.0053 49.8785 18.0747 50.1451 18.16C50.7105 18.32 51.0998 18.5973 51.3131 18.992C51.5371 19.3867 51.6491 19.9573 51.6491 20.704C51.6491 21.1947 51.6011 21.632 51.5051 22.016C51.4091 22.3893 51.2385 22.7093 50.9931 22.976C50.7585 23.232 50.4385 23.4347 50.0331 23.584C49.6278 23.7227 49.1158 23.808 48.4971 23.84H47.5051C46.8865 23.808 46.3798 23.712 45.9851 23.552C45.5905 23.3813 45.2758 23.1573 45.0411 22.88C44.8171 22.6027 44.6571 22.2827 44.5611 21.92C44.4758 21.5467 44.4278 21.1467 44.4171 20.72V20.48C44.4065 20.4053 44.4011 20.3093 44.4011 20.192C44.4011 20.0747 44.4011 19.9573 44.4011 19.84V19.424C44.4545 19.4347 44.5398 19.4613 44.6571 19.504C44.7851 19.5467 44.8651 19.5787 44.8971 19.6C45.0465 19.6533 45.1585 19.7387 45.2331 19.856C45.3185 19.9733 45.3665 20.1013 45.3771 20.24V20.48C45.3878 21.3653 45.5958 21.9893 46.0011 22.352C46.4171 22.704 47.0411 22.88 47.8731 22.88H48.1291C48.6091 22.88 49.0091 22.848 49.3291 22.784C49.6598 22.72 49.9265 22.5973 50.1291 22.416C50.3425 22.2347 50.4918 21.984 50.5771 21.664C50.6731 21.3333 50.7211 20.912 50.7211 20.4C50.7211 19.9947 50.6358 19.6907 50.4651 19.488C50.2945 19.2853 50.0865 19.1413 49.8411 19.056C49.7238 19.0027 49.5478 18.96 49.3131 18.928C49.0785 18.8853 48.8278 18.848 48.5611 18.816C48.2945 18.784 48.0331 18.7573 47.7771 18.736C47.5318 18.7147 47.3291 18.6933 47.1691 18.672C46.6571 18.608 46.2251 18.5333 45.8731 18.448C45.5318 18.3627 45.2545 18.2613 45.0411 18.144C44.8278 18.0267 44.6678 17.888 44.5611 17.728C44.4545 17.568 44.3905 17.3707 44.3691 17.136C44.3265 16.7627 44.2998 16.4373 44.2891 16.16C44.2891 15.872 44.2891 15.648 44.2891 15.488Z" fill="url(#paint1_linear_1_489)"/>
<defs>
<linearGradient id="paint0_linear_1_489" x1="-1.2" y1="16" x2="34" y2="16" gradientUnits="userSpaceOnUse">
<stop stop-color="#2AE0BF"/>
<stop offset="1" stop-color="#457EFF"/>
</linearGradient>
<linearGradient id="paint1_linear_1_489" x1="10.5176" y1="24" x2="54" y2="24" gradientUnits="userSpaceOnUse">
<stop stop-color="#2AE0BF"/>
<stop offset="1" stop-color="#457EFF"/>
</linearGradient>
</defs>
</svg>
