<svg width="11" height="17" viewBox="0 0 11 17" fill="none" xmlns="http://www.w3.org/2000/svg">
<path d="M10.0672 1.42462C10.0672 1.31047 10.0219 1.201 9.94116 1.12028C9.86045 1.03957 9.75098 0.994225 9.63683 0.994225H7.48488C6.40126 0.940247 5.34033 1.31736 4.53388 2.04316C3.72744 2.76896 3.24104 3.78444 3.18097 4.86774V7.19185H1.02902C0.914877 7.19185 0.805405 7.23719 0.724691 7.31791C0.643977 7.39862 0.598633 7.50809 0.598633 7.62224V9.86027C0.598633 9.97441 0.643977 10.0839 0.724691 10.1646C0.805405 10.2453 0.914877 10.2907 1.02902 10.2907H3.18097V16.0579C3.18097 16.172 3.22632 16.2815 3.30703 16.3622C3.38775 16.4429 3.49722 16.4883 3.61137 16.4883H6.19371C6.30785 16.4883 6.41733 16.4429 6.49804 16.3622C6.57875 16.2815 6.6241 16.172 6.6241 16.0579V10.2907H8.87934C8.97505 10.292 9.06849 10.2615 9.14488 10.2038C9.22127 10.1461 9.27625 10.0646 9.30113 9.97217L9.92089 7.73414C9.93801 7.67055 9.94031 7.60387 9.92762 7.53925C9.91492 7.47463 9.88756 7.41378 9.84765 7.3614C9.80773 7.30901 9.75633 7.26648 9.6974 7.23709C9.63846 7.20769 9.57357 7.19222 9.50771 7.19185H6.6241V4.86774C6.64551 4.65468 6.74557 4.45724 6.90473 4.31399C7.0639 4.17074 7.27074 4.09196 7.48488 4.09304H9.63683C9.75098 4.09304 9.86045 4.04769 9.94116 3.96698C10.0219 3.88626 10.0672 3.77679 10.0672 3.66265V1.42462Z" fill="#626F8A"/>
<path d="M10.0672 1.42462C10.0672 1.31047 10.0219 1.201 9.94116 1.12028C9.86045 1.03957 9.75098 0.994225 9.63683 0.994225H7.48488C6.40126 0.940247 5.34033 1.31736 4.53388 2.04316C3.72744 2.76896 3.24104 3.78444 3.18097 4.86774V7.19185H1.02902C0.914877 7.19185 0.805405 7.23719 0.724691 7.31791C0.643977 7.39862 0.598633 7.50809 0.598633 7.62224V9.86027C0.598633 9.97441 0.643977 10.0839 0.724691 10.1646C0.805405 10.2453 0.914877 10.2907 1.02902 10.2907H3.18097V16.0579C3.18097 16.172 3.22632 16.2815 3.30703 16.3622C3.38775 16.4429 3.49722 16.4883 3.61137 16.4883H6.19371C6.30785 16.4883 6.41733 16.4429 6.49804 16.3622C6.57875 16.2815 6.6241 16.172 6.6241 16.0579V10.2907H8.87934C8.97505 10.292 9.06849 10.2615 9.14488 10.2038C9.22127 10.1461 9.27625 10.0646 9.30113 9.97217L9.92089 7.73414C9.93801 7.67055 9.94031 7.60387 9.92762 7.53925C9.91492 7.47463 9.88756 7.41378 9.84765 7.3614C9.80773 7.30901 9.75633 7.26648 9.6974 7.23709C9.63846 7.20769 9.57357 7.19222 9.50771 7.19185H6.6241V4.86774C6.64551 4.65468 6.74557 4.45724 6.90473 4.31399C7.0639 4.17074 7.27074 4.09196 7.48488 4.09304H9.63683C9.75098 4.09304 9.86045 4.04769 9.94116 3.96698C10.0219 3.88626 10.0672 3.77679 10.0672 3.66265V1.42462Z" fill="black" fill-opacity="0.2"/>
</svg>
