<svg width="17" height="18" viewBox="0 0 17 18" fill="none" xmlns="http://www.w3.org/2000/svg">
<path fill-rule="evenodd" clip-rule="evenodd" d="M6.61481 6.31444H9.67181V7.83717C10.1122 6.96139 11.2415 6.17451 12.9379 6.17451C16.1899 6.17451 16.962 7.91784 16.962 11.1164V17.0403H13.6696V11.8448C13.6696 10.0233 13.2293 8.9961 12.1082 8.9961C10.5534 8.9961 9.90722 10.1032 9.90722 11.844V17.0403H6.61481V6.31444ZM0.969167 16.9003H4.26157V6.17451H0.969167V16.9003ZM4.73321 2.67715C4.73333 2.95312 4.6786 3.22636 4.5722 3.48098C4.4658 3.73561 4.30985 3.96655 4.11341 4.16038C3.71536 4.55598 3.17657 4.77742 2.61537 4.77606C2.05516 4.77568 1.51761 4.55481 1.11897 4.1612C0.923248 3.96672 0.767825 3.73552 0.661611 3.48085C0.555396 3.22619 0.500477 2.95308 0.5 2.67715C0.5 2.11991 0.722237 1.58655 1.11979 1.1931C1.51808 0.798968 2.05586 0.578001 2.61619 0.578247C3.17755 0.578247 3.71585 0.799661 4.11341 1.1931C4.51015 1.58655 4.73321 2.11991 4.73321 2.67715Z" fill="#626F8A"/>
<path fill-rule="evenodd" clip-rule="evenodd" d="M6.61481 6.31444H9.67181V7.83717C10.1122 6.96139 11.2415 6.17451 12.9379 6.17451C16.1899 6.17451 16.962 7.91784 16.962 11.1164V17.0403H13.6696V11.8448C13.6696 10.0233 13.2293 8.9961 12.1082 8.9961C10.5534 8.9961 9.90722 10.1032 9.90722 11.844V17.0403H6.61481V6.31444ZM0.969167 16.9003H4.26157V6.17451H0.969167V16.9003ZM4.73321 2.67715C4.73333 2.95312 4.6786 3.22636 4.5722 3.48098C4.4658 3.73561 4.30985 3.96655 4.11341 4.16038C3.71536 4.55598 3.17657 4.77742 2.61537 4.77606C2.05516 4.77568 1.51761 4.55481 1.11897 4.1612C0.923248 3.96672 0.767825 3.73552 0.661611 3.48085C0.555396 3.22619 0.500477 2.95308 0.5 2.67715C0.5 2.11991 0.722237 1.58655 1.11979 1.1931C1.51808 0.798968 2.05586 0.578001 2.61619 0.578247C3.17755 0.578247 3.71585 0.799661 4.11341 1.1931C4.51015 1.58655 4.73321 2.11991 4.73321 2.67715Z" fill="black" fill-opacity="0.2"/>
</svg>
